<svg id="Layer_1" data-name="Layer 1" xmlns="http://www.w3.org/2000/svg" viewBox="0 0 342 342"><defs><style>.cls-1{fill:#fff;}</style></defs><title>citee-logo</title><path class="cls-1" d="M26.18,81.34C26.18,51.13,49,30.5,77.75,30.5c22.4,0,34.92,11.79,41.85,24l-18,8.84A26.92,26.92,0,0,0,77.75,49.07c-17.09,0-30.06,13.7-30.06,32.27s13,32.27,30.06,32.27a26.64,26.64,0,0,0,23.87-14.29l18,8.69c-7.07,12.23-19.45,24.17-41.85,24.17C49,132.18,26.18,111.55,26.18,81.34Z"/><path class="cls-1" d="M132.14,12.31h20.93V110.6H132.14Z"/><path class="cls-1" d="M193.1,47.72H164.36V29.3h78.4V47.72H214.17v79.87H193.1Z"/><path class="cls-1" d="M215.68,229.2c28.74,0,47.17,22,47.17,52.13v5H188.92c1.59,14.47,12.49,26.36,30.52,26.36,9.32,0,20.41-3.77,27.15-10.5l9.51,13.68c-9.51,9.12-23.59,13.87-38.85,13.87-28.74,0-50.15-20-50.15-50.34C167.12,251.6,187.34,229.2,215.68,229.2Zm-27,42.42h53.91c-.4-11.3-8.13-25.37-27-25.37C197.84,246.25,189.71,259.93,188.72,271.62Z"/><path class="cls-1" d="M266,146.65c28.74,0,47.17,22,47.17,52.13v5H239.29c1.59,14.47,12.49,26.36,30.52,26.36,9.32,0,20.41-3.77,27.15-10.5l9.51,13.68c-9.51,9.12-23.59,13.87-38.85,13.87-28.74,0-50.15-20-50.15-50.34C217.48,169,237.7,146.65,266,146.65Zm-27,42.42H293c-.4-11.3-8.13-25.37-27-25.37C248.21,163.7,240.08,177.37,239.09,189.07Z"/><path class="cls-1" d="M88.27,151.73a16.95,16.95,0,1,0,16.95,16.95A17,17,0,0,0,88.27,151.73Z"/><path class="cls-1" d="M168.61,146.32a14.83,14.83,0,1,0,14.83,14.83A14.85,14.85,0,0,0,168.61,146.32Z"/><path class="cls-1" d="M149.6,217.14a14.2,14.2,0,1,0,14.19,14.2A14.21,14.21,0,0,0,149.6,217.14Z"/><path class="cls-1" d="M101.47,204a14.62,14.62,0,1,0,14.62,14.62A14.63,14.63,0,0,0,101.47,204Z"/><path class="cls-1" d="M240.44,118.43c0,.19-2.22,19.38-33.2,33.29-14.58,6.54-30.6,6.52-37.64,6.11-4.52-6.27-19.31-23.27-45.55-21C110.81,138,98.74,145,89.14,157.12a73.31,73.31,0,0,0-10.55,18l4.69,1.75A62.42,62.42,0,0,1,87.76,168l1.57,1.3a59.49,59.49,0,0,0,35.44,11.94q-.13.8-.3,1.64c-2,10-9.81,20.77-17.33,29.19-9.6,4.66-16.18,8.32-16.57,8.63L92.46,223l1,1.69c.24-.15,1.1-.63,2.46-1.37-2.74,2.51-4.54,4-4.62,4.06l3.16,3.87c.21-.17,1.27-1,2.87-2.46-.47,8.07.25,18.18,5.46,24.79,3.6,4.58,8.79,6.89,15.43,6.89,25,0,32.67-19.54,34.15-24.26a46.51,46.51,0,0,0,5.85-4.93l.57,2.46c1.24-.29,30.35-7.19,37.67-20.9a13.7,13.7,0,0,0,.77-11.75c-1.93-5.1-5.88-8.5-11.76-10.12a33.06,33.06,0,0,0-7.91-1.05,156.67,156.67,0,0,0,.62-27c8.51-.27,20-1.74,31.06-6.68,33.6-15.09,36-36.47,36.13-37.37Zm-151,46.85c6.32-9.61,17.69-21.94,35-23.45a44.76,44.76,0,0,1,41,18.83l-.1.71c-3.63,3.39-13.75,11.21-32.21,14.17q-1.49.24-2.94.39c0-6.17-1.81-10.72-5.5-13.59-3.08-2.39-7.1-3.26-11.32-3.26-10.8,0-22.88,5.68-23.58,6Zm6.66,2.58c7.47-2.86,19.78-6.11,25.59-1.59,2.46,1.92,3.66,5.24,3.58,9.91H125A56.31,56.31,0,0,1,96.1,167.86Zm33.28,16q.29-1.46.49-2.84,2-.18,4.12-.51c25.51-4.09,36.36-16.93,36.86-17.54q1.09,0,2.35.07a154.69,154.69,0,0,1-.67,27.08c-11.35.82-26.34,5.06-44.8,12.68-3.45,1.42-6.81,2.88-10,4.33C123.14,199.86,127.8,191.75,129.38,183.83ZM149,232.54l-.89.55-.24,1c-.21.87-5.29,21.4-29.56,21.4-5.09,0-8.85-1.63-11.49-5-5.43-6.89-4.86-19.26-3.87-26.82,2.26-2.19,4.79-4.76,7.38-7.63,6.09-2.93,13.35-6.25,21-9.35,16.54-6.72,30.21-10.59,40.5-11.54A58,58,0,0,1,168,208.32C160.43,225.31,149.07,232.47,149,232.54Zm36.29-36.39a11.08,11.08,0,0,1,7.35,6.74,8.78,8.78,0,0,1-.5,7.63c-4.5,8.44-21.21,14.71-30.65,17.41a69.5,69.5,0,0,0,11.11-17.57,64.92,64.92,0,0,0,4.35-15.41A27,27,0,0,1,185.25,196.15Z"/><path class="cls-1" d="M248.8,105.81a14.83,14.83,0,1,0,14.83,14.83A14.85,14.85,0,0,0,248.8,105.81Z"/></svg>